<svg xmlns="http://www.w3.org/2000/svg" xmlns:xlink="http://www.w3.org/1999/xlink" fill="none" version="1.1" width="16" height="16" viewBox="0 0 16 16"><defs><clipPath id="master_svg0_426_000452"><rect x="0" y="0" width="16" height="16" rx="0"/></clipPath><linearGradient x1="1" y1="4.562322741819003e-16" x2="-0.04626477834734706" y2="0.9489930867364482" id="master_svg1_426_91723"><stop offset="0%" stop-color="#E98CDE" stop-opacity="1"/><stop offset="34.76386070251465%" stop-color="#B484F4" stop-opacity="1"/><stop offset="66.66666865348816%" stop-color="#3991FF" stop-opacity="1"/><stop offset="100%" stop-color="#63D8FF" stop-opacity="1"/><stop offset="100%" stop-color="#63D8FF" stop-opacity="1"/></linearGradient></defs><g clip-path="url(#master_svg0_426_000452)"><g><path d="M9.66667,2.958251953125C10.56413,2.958251953125,11.2917,2.230711953125,11.2917,1.333251953125L12.0417,1.333251953125C12.0417,2.230711953125,12.7692,2.958251953125,13.6667,2.958251953125L13.6667,3.708251953125C12.7692,3.708251953125,12.0417,4.435791953124999,12.0417,5.333251953125L11.2917,5.333251953125C11.2917,4.435791953124999,10.56413,3.708251953125,9.66667,3.708251953125L9.66667,2.958251953125ZM1,7.333251953125C3.20914,7.333251953125,5,5.542391953125,5,3.333251953125L6.33333,3.333251953125C6.33333,5.542391953125,8.1242,7.333251953125,10.33333,7.333251953125L10.33333,8.666581953125C8.1242,8.666581953125,6.33333,10.457451953125,6.33333,12.666551953125L5,12.666551953125C5,10.457451953125,3.20914,8.666581953125,1,8.666581953125L1,7.333251953125ZM3.58401,7.999921953125C4.45811,8.484981953125,5.18162,9.208451953125,5.66667,10.082581953125C6.15171,9.208451953125,6.87522,8.484981953125,7.74933,7.999921953125C6.87522,7.514851953125,6.15171,6.791381953125,5.66667,5.917261953125C5.18162,6.791381953125,4.45811,7.514851953125,3.58401,7.999921953125ZM11.8333,9.333251953125C11.8333,10.529851953125,10.86327,11.499951953125,9.66667,11.499951953125L9.66667,12.499951953125C10.86327,12.499951953125,11.8333,13.469951953125,11.8333,14.666551953125L12.8333,14.666551953125C12.8333,13.469951953125,13.8034,12.499951953125,15,12.499951953125L15,11.499951953125C13.8034,11.499951953125,12.8333,10.529851953125,12.8333,9.333251953125L11.8333,9.333251953125Z" fill="url(#master_svg1_426_91723)" fill-opacity="1" style="mix-blend-mode:passthrough"/></g></g></svg>