<?xml version="1.0" standalone="no"?><!DOCTYPE svg PUBLIC "-//W3C//DTD SVG 1.1//EN" "http://www.w3.org/Graphics/SVG/1.1/DTD/svg11.dtd"><svg t="1772698119449" class="icon" viewBox="0 0 1024 1024" version="1.1" xmlns="http://www.w3.org/2000/svg" p-id="11330" width="64" height="64" xmlns:xlink="http://www.w3.org/1999/xlink"><path d="M512 0c278.966857 0 505.782857 223.085714 511.890286 500.553143L1024 512c0 278.966857-223.085714 505.782857-500.553143 511.890286L512 1024C233.033143 1024 6.217143 800.914286 0.109714 523.446857L0 512C0 229.229714 229.229714 0 512 0z" fill="#DFE0E2" p-id="11331"></path><path d="M329.142857 536.393143h146.285714v-48.786286H329.142857V264.411429a12.178286 12.178286 0 0 1 18.066286-10.678858l450.121143 247.588572a12.178286 12.178286 0 0 1 0 21.357714l-450.121143 247.588572A12.178286 12.178286 0 0 1 329.142857 759.588571v-223.195428z" fill="#FFFFFF" p-id="11332"></path></svg>