<svg xmlns="http://www.w3.org/2000/svg" xmlns:xlink="http://www.w3.org/1999/xlink" fill="none" version="1.1" width="415.6015625" height="80" viewBox="0 0 207.80078125 40"><defs><linearGradient x1="0.634876549243927" y1="-0.08301594853401184" x2="0.37897964279133495" y2="1.000000032768239" id="master_svg0_303_07857"><stop offset="0%" stop-color="#F79532" stop-opacity="1"/><stop offset="51.428574323654175%" stop-color="#F02121" stop-opacity="1"/><stop offset="100%" stop-color="#D40A0A" stop-opacity="1"/></linearGradient><linearGradient x1="0.5279287099838257" y1="0" x2="0.5105809056722379" y2="1.00018352180079" id="master_svg1_147_00174"><stop offset="0%" stop-color="#F79532" stop-opacity="1"/><stop offset="62.14285492897034%" stop-color="#F02121" stop-opacity="1"/><stop offset="100%" stop-color="#D40A0A" stop-opacity="1"/></linearGradient></defs><g><g><g><path d="M0,25.5417L0,32.3077C0,36.556,3.44396,40,7.69231,40L32.3077,40C36.556,40,40,36.556,40,32.3077L40,25.8795L32.4723,25.8795C31.7459,25.8795,31.0893,25.4066,30.8683,24.7017L27.6404,14.6381C27.5696,14.4176,27.2613,14.4079,27.1768,14.6234L21.0617,30.2192C20.806,30.8704,20.1843,31.2973,19.49,31.2973L19.4496,31.2973C18.7418,31.2757,18.1229,30.8164,17.8914,30.146L12.8714,15.2797C12.7975,15.0608,12.4899,15.0552,12.408,15.2712L8.92955,24.4531C8.67927,25.1097,8.05221,25.5417,7.35221,25.5417L0,25.5417ZM0,22.1563L5.42815,22.1563C5.88829,22.1563,6.30051,21.8719,6.46378,21.4417L11.1741,9.02989C11.4243,8.35951,12.0649,7.92746,12.7807,7.94097C13.4885,7.95421,14.1156,8.41382,14.3443,9.09176L19.3951,24.0432C19.4686,24.2608,19.7736,24.268,19.8574,24.0542L26.019,8.33276C26.2746,7.66806,26.9501,7.23547,27.6364,7.26276C28.3523,7.28438,28.9713,7.75723,29.1893,8.43544L33.453,21.7248C33.6,22.1832,34.0263,22.4941,34.5077,22.4941L40,22.4941L40,7.69231C40,3.44396,36.556,0,32.3077,0L7.69231,0C3.44396,0,0,3.44396,0,7.69231L0,22.1563Z" fill-rule="evenodd" fill="url(#master_svg0_303_07857)" fill-opacity="1"/></g></g><g><g><path d="M184.5999755859375,20.999999523162842L184.5999755859375,18.19999952316284C184.5999755859375,18.08954252316284,184.6895185859375,17.999999523162842,184.7999755859375,17.999999523162842L187.5999755859375,17.999999523162842C187.7104355859375,17.999999523162842,187.7999755859375,18.08954252316284,187.7999755859375,18.19999952316284L187.7999755859375,20.999999523162842C187.7999755859375,21.11045952316284,187.7104355859375,21.19999952316284,187.5999755859375,21.19999952316284L184.7999755859375,21.19999952316284C184.6895185859375,21.19999952316284,184.5999755859375,21.11045952316284,184.5999755859375,20.999999523162842Z" fill="#D40A0A" fill-opacity="1"/></g><g><path d="M203.39996337890625,20.999999523162842L203.39996337890625,18.19999952316284C203.39996337890625,18.08954252316284,203.48950637890624,17.999999523162842,203.59996337890624,17.999999523162842L206.39996337890625,17.999999523162842C206.51042337890624,17.999999523162842,206.59996337890624,18.08954252316284,206.59996337890624,18.19999952316284L206.59996337890624,20.999999523162842C206.59996337890624,21.11045952316284,206.51042337890624,21.19999952316284,206.39996337890625,21.19999952316284L203.59996337890624,21.19999952316284C203.48950637890624,21.19999952316284,203.39996337890625,21.11045952316284,203.39996337890625,20.999999523162842Z" fill="#D40A0A" fill-opacity="1"/></g><g><path d="M51.399984741210936,30C51.179070741210936,30,50.99998474121094,29.8209,50.99998474121094,29.6L50.99998474121094,10.4C50.99998474121094,10.179086,51.179070741210936,10,51.399984741210936,10L65.79998474121093,10C69.11368474121093,10,71.79998474121093,12.68629,71.79998474121093,16L71.79998474121093,24C71.79998474121093,27.3137,69.11368474121093,30,65.79998474121093,30L51.399984741210936,30ZM72.81938474121094,29.4514C72.71428474121095,29.7142,72.90778474121095,30,73.19078474121093,30L75.92918474121095,30C76.09268474121095,30,76.23978474121094,29.9004,76.30058474121094,29.7486L83.09998474121093,12.75L89.89938474121094,29.7486C89.96018474121094,29.9004,90.10728474121095,30,90.27078474121095,30L93.00918474121093,30C93.29218474121095,30,93.48568474121095,29.7142,93.38058474121094,29.4514L85.59998474121093,10L80.59998474121093,10L72.81938474121094,29.4514ZM89.59998474121093,10.4L89.59998474121093,12.8C89.59998474121093,13.02091,89.77908474121094,13.2,89.99998474121094,13.2L98.19998474121094,13.2L98.19998474121094,29.6C98.19998474121094,29.8209,98.37908474121093,30,98.59998474121093,30L101.39998474121094,30C101.62088474121094,30,101.79998474121093,29.8209,101.79998474121093,29.6L101.79998474121093,13.2L109.99998474121094,13.2C110.22088474121094,13.2,110.39998474121094,13.02091,110.39998474121094,12.8L110.39998474121094,10.4C110.39998474121094,10.179086,110.22088474121094,10,109.99998474121094,10L89.99998474121094,10C89.77908474121094,10,89.59998474121093,10.179086,89.59998474121093,10.4ZM106.61938474121094,29.4514C106.51428474121093,29.7142,106.70778474121093,30,106.99078474121094,30L109.72918474121093,30C109.89268474121093,30,110.03978474121094,29.9004,110.10058474121094,29.7486L112.39998474121094,24L119.85228474121094,24C119.92298474121094,24,119.97138474121094,23.9285,119.94508474121093,23.8629L118.85028474121094,21.125700000000002C118.81988474121094,21.049799999999998,118.74638474121093,21,118.66458474121093,21L113.59998474121093,21L116.89998474121094,12.75L123.69938474121093,29.7486C123.76018474121094,29.9004,123.90718474121094,30,124.07078474121094,30L126.80918474121094,30C127.09218474121094,30,127.28568474121094,29.7142,127.18058474121094,29.4514L119.39998474121094,10L114.39998474121094,10L106.61938474121094,29.4514ZM129.39998474121094,10C129.17908474121094,10,128.99998474121094,10.179086,128.99998474121094,10.4L128.99998474121094,29.6C128.99998474121094,29.8209,129.17908474121094,30,129.39998474121094,30L141.99998474121094,30C145.20318474121092,30,147.79998474121095,27.4033,147.79998474121095,24.2C147.79998474121095,22.3396,146.92408474121095,20.6839,145.56218474121096,19.62251C146.45738474121094,18.60182,146.99998474121094,17.26428,146.99998474121094,15.8C146.99998474121094,12.59675,144.40318474121094,10,141.19998474121093,10L129.39998474121094,10ZM149.39998474121094,10.4C149.39998474121094,10.179086,149.57908474121092,10,149.79998474121095,10L152.59998474121093,10C152.82098474121094,10,152.99998474121094,10.179086,152.99998474121094,10.4L152.99998474121094,24.4C152.99998474121094,25.7255,154.07498474121093,26.8,155.39998474121094,26.8L164.19998474121093,26.8C165.52498474121094,26.8,166.59998474121093,25.7255,166.59998474121093,24.4L166.59998474121093,10.4C166.59998474121093,10.179086,166.77898474121093,10,166.99998474121094,10L169.79998474121095,10C170.02098474121095,10,170.19998474121093,10.179086,170.19998474121093,10.4L170.19998474121093,25.6C170.19998474121093,28.0301,168.22998474121096,30,165.79998474121095,30L153.79998474121095,30C151.36998474121094,30,149.39998474121094,28.0301,149.39998474121094,25.6L149.39998474121094,10.4ZM171.79998474121095,10.8C171.79998474121095,10.358172,172.15798474121095,10,172.59998474121093,10L188.59998474121093,10C188.82098474121094,10,188.99998474121094,10.179086,188.99998474121094,10.4L188.99998474121094,12.8C188.99998474121094,13.02091,188.82098474121094,13.2,188.59998474121093,13.2L175.39998474121094,13.2L175.39998474121094,18L183.29698474121093,17.99997C183.40698474121095,17.99997,183.49698474121095,18.08956,183.49698474121095,18.200020000000002L183.49698474121095,20.9999C183.49698474121095,21.1104,183.40698474121095,21.2,183.29698474121093,21.2L175.39998474121094,21.2L175.39998474121094,29.6C175.39998474121094,29.8209,175.22098474121094,30,174.99998474121094,30L172.19998474121093,30C171.97898474121092,30,171.79998474121095,29.8209,171.79998474121095,29.6L171.79998474121095,10.8ZM190.59998474121093,10.8L190.59998474121093,29.6C190.59998474121093,29.8209,190.77898474121093,30,190.99998474121094,30L193.79998474121095,30C194.02098474121092,30,194.19998474121093,29.8209,194.19998474121093,29.6L194.19998474121093,21.2L202.09698474121095,21.2C202.20698474121093,21.2,202.29698474121093,21.1104,202.29698474121093,20.9999L202.29698474121093,18.200020000000002C202.29698474121093,18.08956,202.20698474121093,17.99997,202.09698474121095,17.99997L194.19998474121093,18L194.19998474121093,13.2L207.39998474121094,13.2C207.62098474121095,13.2,207.79998474121095,13.02091,207.79998474121095,12.8L207.79998474121095,10.4C207.79998474121095,10.179086,207.62098474121095,10,207.39998474121094,10L191.39998474121094,10C190.95798474121094,10,190.59998474121093,10.358172,190.59998474121093,10.8ZM54.59998474121094,26.6L54.59998474121094,13.4C54.59998474121094,13.28954,54.68952474121094,13.2,54.799984741210935,13.2L64.79998474121093,13.2C66.67778474121094,13.2,68.19998474121094,14.72223,68.19998474121094,16.6L68.19998474121094,23.4C68.19998474121094,25.2778,66.67778474121094,26.8,64.79998474121093,26.8L54.799984741210935,26.8C54.68952474121094,26.8,54.59998474121094,26.7105,54.59998474121094,26.6ZM141.19998474121093,18.4L132.79998474121095,18.4C132.68948474121095,18.4,132.59998474121093,18.31046,132.59998474121093,18.2L132.59998474121093,13.4C132.59998474121093,13.28954,132.68948474121095,13.2,132.79998474121095,13.2L141.19998474121093,13.2C142.63588474121093,13.2,143.79998474121095,14.36406,143.79998474121095,15.8C143.79998474121095,17.23594,142.63588474121093,18.4,141.19998474121093,18.4ZM132.59998474121093,21.8C132.59998474121093,21.689500000000002,132.68948474121095,21.6,132.79998474121095,21.6L141.99998474121094,21.6C143.43588474121094,21.6,144.59998474121093,22.7641,144.59998474121093,24.2C144.59998474121093,25.6359,143.43588474121094,26.8,141.99998474121094,26.8L132.79998474121095,26.8C132.68948474121095,26.8,132.59998474121093,26.7105,132.59998474121093,26.6L132.59998474121093,21.8Z" fill-rule="evenodd" fill="#0A0F18" fill-opacity="1"/></g><g><path d="M78.99997520446777,30.000035401916506L86.99997520446777,30.000035401916506L83.12119520446777,19.848435401916504L78.99997520446777,30.000035401916506Z" fill="url(#master_svg1_147_00174)" fill-opacity="1"/></g></g></g></svg>