<svg xmlns="http://www.w3.org/2000/svg" fill="none" viewBox="27 5 83 11"><g><g><path d="M97.8076171875,10.830234375L97.8076171875,9.346234375C97.8076171875,9.287692175,97.8550749875,9.240234375,97.9136171875,9.240234375L99.3976171875,9.240234375C99.4561571875,9.240234375,99.5036171875,9.287692175,99.5036171875,9.346234375L99.5036171875,10.830234375C99.5036171875,10.888774375,99.4561571875,10.936234375,99.3976171875,10.936234375L97.9136171875,10.936234375C97.8550749875,10.936234375,97.8076171875,10.888774375,97.8076171875,10.830234375Z" fill="#fff" fill-opacity="1"/></g><g><path d="M107.7724609375,10.830234375L107.7724609375,9.346234375C107.7724609375,9.287692175,107.8199187375,9.240234375,107.8784609375,9.240234375L109.3624609375,9.240234375C109.4210009375,9.240234375,109.4684609375,9.287692175,109.4684609375,9.346234375L109.4684609375,10.830234375C109.4684609375,10.888774375,109.4210009375,10.936234375,109.3624609375,10.936234375L107.8784609375,10.936234375C107.8199187375,10.936234375,107.7724609375,10.888774375,107.7724609375,10.830234375Z" fill="#fff" fill-opacity="1"/></g><g><path d="M27.212,15.6C27.0949157,15.6,27,15.5051,27,15.388L27,5.212C27,5.0949157,27.0949157,5,27.212,5L34.844,5C36.60027,5,38.024,6.42373,38.024,8.18L38.024,12.42C38.024,14.17627,36.60027,15.6,34.844,15.6L27.212,15.6ZM38.5643,15.3093C38.5086,15.4485,38.6111,15.6,38.7611,15.6L40.2125,15.6C40.2992,15.6,40.3771,15.5472,40.4093,15.4667L44.013000000000005,6.4575L47.6167,15.4667C47.6489,15.5472,47.7269,15.6,47.813500000000005,15.6L49.2649,15.6C49.4149,15.6,49.517399999999995,15.4485,49.4617,15.3093L45.338,5L42.688,5L38.5643,15.3093ZM47.458,5.212L47.458,6.484C47.458,6.60108,47.5529,6.696,47.67,6.696L52.016,6.696L52.016,15.388C52.016,15.5051,52.1109,15.6,52.228,15.6L53.712,15.6C53.8291,15.6,53.924,15.5051,53.924,15.388L53.924,6.696L58.269999999999996,6.696C58.387100000000004,6.696,58.482,6.60108,58.482,6.484L58.482,5.212C58.482,5.0949156,58.387100000000004,5,58.269999999999996,5L47.67,5C47.5529,5,47.458,5.0949156,47.458,5.212ZM56.478300000000004,15.3093C56.4226,15.4485,56.5252,15.6,56.6751,15.6L58.1265,15.6C58.2132,15.6,58.2911,15.5472,58.3233,15.4667L59.542,12.42L63.4917,12.42C63.5292,12.42,63.5549,12.38213,63.5409,12.34732L62.9607,10.89663C62.9446,10.856390000000001,62.9056,10.83,62.8622,10.83L60.178,10.83L61.927,6.4575L65.5307,15.4667C65.5629,15.5472,65.6409,15.6,65.72749999999999,15.6L67.1789,15.6C67.3289,15.6,67.4314,15.4485,67.3757,15.3093L63.252,5L60.602,5L56.478300000000004,15.3093ZM68.55199999999999,5C68.4349,5,68.34,5.0949157,68.34,5.212L68.34,15.388C68.34,15.5051,68.4349,15.6,68.55199999999999,15.6L75.22999999999999,15.6C76.9277,15.6,78.304,14.22373,78.304,12.526C78.304,11.540009999999999,77.8398,10.66244,77.118,10.09993C77.5924,9.558959999999999,77.88,8.85007,77.88,8.074C77.88,6.3762799999999995,76.50370000000001,5,74.806,5L68.55199999999999,5ZM79.152,5.212C79.152,5.0949157,79.2469,5,79.364,5L80.848,5C80.9651,5,81.06,5.0949157,81.06,5.212L81.06,12.632C81.06,13.33451,81.62950000000001,13.904,82.332,13.904L86.99600000000001,13.904C87.6985,13.904,88.268,13.33451,88.268,12.632L88.268,5.212C88.268,5.0949157,88.3629,5,88.47999999999999,5L89.964,5C90.08109999999999,5,90.176,5.0949157,90.176,5.212L90.176,13.268C90.176,14.55593,89.132,15.6,87.844,15.6L81.48400000000001,15.6C80.1961,15.6,79.152,14.55593,79.152,13.268L79.152,5.212ZM91.024,5.424C91.024,5.189831,91.2138,5,91.448,5L99.928,5C100.0451,5,100.14,5.0949157,100.14,5.212L100.14,6.484C100.14,6.60108,100.0451,6.696,99.928,6.696L92.932,6.696L92.932,9.24L97.1174,9.23998C97.176,9.23998,97.2234,9.287469999999999,97.2234,9.34601L97.2234,10.82997C97.2234,10.88851,97.176,10.93599,97.1174,10.93599L92.932,10.936L92.932,15.388C92.932,15.5051,92.8371,15.6,92.72,15.6L91.236,15.6C91.1189,15.6,91.024,15.5051,91.024,15.388L91.024,5.424ZM100.988,5.424L100.988,15.388C100.988,15.5051,101.0829,15.6,101.2001,15.6L102.684,15.6C102.8011,15.6,102.896,15.5051,102.896,15.388L102.896,10.936L107.0814,10.93599C107.1399,10.93599,107.1874,10.88851,107.1874,10.82997L107.1874,9.34601C107.1874,9.287469999999999,107.1399,9.23998,107.0814,9.23998L102.896,9.24L102.896,6.696L109.892,6.696C110.0091,6.696,110.104,6.60108,110.104,6.484L110.104,5.212C110.104,5.0949157,110.0091,5,109.892,5L101.412,5C101.1778,5,100.988,5.189831,100.988,5.424ZM28.908,13.798L28.908,6.802C28.908,6.74346,28.95546,6.696,29.014,6.696L34.314,6.696C35.309219999999996,6.696,36.116,7.50278,36.116,8.498000000000001L36.116,12.102C36.116,13.09722,35.309219999999996,13.904,34.314,13.904L29.014,13.904C28.95546,13.904,28.908,13.85654,28.908,13.798ZM74.806,9.452L70.354,9.452C70.2955,9.452,70.24799999999999,9.40454,70.24799999999999,9.346L70.24799999999999,6.802C70.24799999999999,6.74346,70.2955,6.696,70.354,6.696L74.806,6.696C75.56710000000001,6.696,76.184,7.31295,76.184,8.074C76.184,8.835049999999999,75.56710000000001,9.452,74.806,9.452ZM70.24799999999999,11.254C70.24799999999999,11.19546,70.2955,11.148,70.354,11.148L75.22999999999999,11.148C75.9911,11.148,76.608,11.764949999999999,76.608,12.526C76.608,13.28705,75.9911,13.904,75.22999999999999,13.904L70.354,13.904C70.2955,13.904,70.24799999999999,13.85654,70.24799999999999,13.798L70.24799999999999,11.254Z" fill-rule="evenodd" fill="#fff" fill-opacity="1"/></g><g><path d="M41.83984375,15.600002203063966L46.07984375,15.600002203063966L44.02409375,10.219672203063965L41.83984375,15.600002203063966Z" fill="#fff" fill-opacity="1"/></g></g></svg>