<svg xmlns="http://www.w3.org/2000/svg" xmlns:xlink="http://www.w3.org/1999/xlink" version="1.1" viewBox="0 0 20 20" width="40" height="40"><path d="M0,12.7709L0,16.1538C0,18.278,1.72198,20,3.84615,20L16.1538,20C18.278,20,20,18.278,20,16.1538L20,12.9397L16.2362,12.9397C15.873,12.9397,15.5446,12.7033,15.4342,12.3508L13.8202,7.31904C13.7848,7.20881,13.6307,7.20393,13.5884,7.31171L10.5308,15.1096C10.403,15.4352,10.0922,15.6487,9.745,15.6487L9.72482,15.6487C9.37092,15.6378,9.06143,15.4082,8.9457,15.073L6.43572,7.63985C6.39876,7.53039,6.24495,7.52758,6.20402,7.63563L4.46478,12.2265C4.33964,12.5548,4.02611,12.7709,3.67611,12.7709L0,12.7709ZM0,11.0782L2.71408,11.0782C2.94415,11.0782,3.15026,10.9359,3.23189,10.7208L5.58703,4.51494C5.71217,4.17976,6.03243,3.96373,6.39037,3.97048C6.74426,3.9771,7.05779,4.20691,7.17217,4.54588L9.69753,12.0216C9.73428,12.1304,9.88682,12.134,9.92873,12.0271L13.0095,4.16638C13.1373,3.83403,13.4751,3.61773,13.8182,3.63138C14.1761,3.64219,14.4856,3.87861,14.5946,4.21772L16.7265,10.8624C16.8,11.0916,17.0132,11.247,17.2539,11.247L20,11.247L20,3.84615C20,1.72198,18.278,0,16.1538,0L3.84615,0C1.72198,0,0,1.72198,0,3.84615L0,11.0782Z" fill-rule="evenodd" fill="#fff" fill-opacity="1" /></svg>