<svg viewBox="0 0 279 153" width="279" height="153" xmlns="http://www.w3.org/2000/svg" xmlns:xlink="http://www.w3.org/1999/xlink" xml:space="preserve" overflow="hidden"><g transform="translate(-427 -90)"><path d="M491.135 54.2951C490.096 55.0319 488.492 56.3322 487.581 57.2857 485.935 58.9761 485.891 59.0195 483.204 58.8028 479.346 58.4561 470.938 59.3662 463.786 60.8832 460.362 61.5767 454.337 62.8337 450.306 63.7005 442.504 65.3042 439.037 66.3878 437.174 67.9049 435.96 68.8584 431.105 76.0967 421.483 91.1801L416.151 99.632 425.514 100.065 434.876 100.499 429.328 106.827C426.294 110.294 418.102 119.57 411.168 127.415 392.053 149 383.688 158.796 384.338 158.796 384.728 158.796 389.669 154.938 399.725 146.876L407.31 140.808 414.245 140.505C421.743 140.201 425.73 139.464 432.449 137.124 436.61 135.65 448.139 130.493 448.833 129.799 449.092 129.539 448.139 127.458 446.189 124.034 444.498 121.087 442.981 118.356 442.808 117.879 442.158 116.232 444.325 118.053 451.303 125.291 455.161 129.279 458.975 133.136 459.842 133.83L461.359 135.087 465.953 133.96C475.532 131.619 488.492 129.842 498.764 129.452L505.699 129.192 514.064 133.397C518.702 135.693 522.906 137.558 523.383 137.558 524.987 137.558 534.609 134.393 534.826 133.787 535.215 132.833 533.612 128.585 532.268 126.982 530.708 125.032 528.237 123.774 518.918 120.09 511.03 116.926 508.04 116.102 492.522 112.852 486.714 111.638 481.166 110.338 480.257 109.948 476.312 108.388 475.272 104.487 477.699 100.629 479.043 98.5051 480.126 97.6816 481.644 97.6816 482.337 97.6816 482.77 98.2017 483.464 99.7187 483.94 100.889 484.418 101.886 484.504 101.973 484.591 102.059 486.065 101.496 487.798 100.672 490.139 99.632 491.742 99.1986 493.866 99.0686 498.591 98.7652 499.631 99.1553 502.838 102.189 506.089 105.31 507.086 105.917 508.863 105.917 511.42 105.917 512.677 105.006 517.011 100.152 524.943 91.2668 525.333 90.53 524.119 87.886 523.686 86.9758 521.953 84.4186 520.262 82.2947 518.572 80.1276 516.187 76.5301 515.018 74.2329 512.504 69.3352 511.637 68.5116 504.095 63.6139 499.24 60.4498 498.461 59.7563 497.507 57.8926 496.25 55.3787 494.343 53.0382 493.606 53.0382 493.303 53.0382 492.219 53.6016 491.135 54.2951ZM397.558 85.8055C390.363 88.2761 381.478 90.6599 368.561 93.5639 358.549 95.7745 353.738 96.6413 338.828 98.9818 329.552 100.412 323.874 102.492 311.521 109.037 297.911 116.232 296.351 116.84 290.283 117.056 286.123 117.229 285.169 117.143 283.002 116.319 279.881 115.148 278.017 113.588 277.02 111.335 275.98 109.081 275.98 106.653 277.063 102.449 278.017 98.7652 277.931 98.0717 276.284 96.2513 273.163 92.9139 268.655 97.0314 267.398 104.357 266.575 109.211 268.265 114.932 271.645 118.833 273.943 121.477 278.407 124.511 281.528 125.551 284.865 126.635 291.844 126.808 295.051 125.898 298.432 124.945 304.89 122.301 311.478 119.179 322.617 113.849 333.626 109.861 334.537 110.814 334.667 110.944 333.93 112.462 332.847 114.196 330.679 117.576 329.639 120.09 326.865 128.845 325.868 132.01 324.351 135.693 323.571 137.08 320.537 142.238 315.812 145.359 308.271 147.267 306.017 147.83 303.677 148.479 303.069 148.74 302.376 149 299.992 151.904 296.785 156.455 289.72 166.337 287.423 168.721 282.655 171.192 278.537 173.315 277.974 174.009 276.457 179.124 275.33 183.024 275.416 183.371 278.06 184.151 282.741 185.581 284.476 185.538 288.202 183.761 291.281 182.288 292.277 181.464 298.952 174.659 303.026 170.541 307.274 166.553 308.444 165.73 312.259 163.13 313.992 162.697 330.159 160.312 344.592 158.145 348.45 156.368 360.282 146.443 365.614 142.022 370.902 139.031 375.452 137.947 378.747 137.124 385.465 137.254 388.846 138.164 390.363 138.554 391.75 138.77 391.966 138.554 392.92 137.601 405.057 114.585 404.752 114.282 404.666 114.152 400.721 113.936 396.084 113.761L387.589 113.502 393.916 102.016C401.242 88.7095 403.279 84.722 403.105 84.2886 403.019 84.0718 400.548 84.7653 397.558 85.8055Z" fill="#FFFFFF" transform="matrix(1 0 0 1.00452 166.859 45.8044)"/></g></svg>